<?xml version="1.0" encoding="utf-8"?>
<!-- Generator: Adobe Illustrator 22.0.1, SVG Export Plug-In . SVG Version: 6.00 Build 0)  -->
<svg version="1.1" id="Warstwa_1" xmlns="http://www.w3.org/2000/svg" xmlns:xlink="http://www.w3.org/1999/xlink" x="0px" y="0px"
	 viewBox="0 0 16 15" style="enable-background:new 0 0 16 15;" xml:space="preserve">
<style type="text/css">
	.st0{opacity:0.85;fill:#262626;enable-background:new    ;}
</style>
<path id="ico_cart" class="st0" d="M12.5,0.5l-2.3,9H3.4L1.7,2.8L0,2.9l1.8,7.4L2.2,11h9.2l0.5-0.7L14,1.5l1.6,0.1L16,0l-2.5,0
	L12.5,0.5z M10,12c-0.8,0-1.5,0.7-1.5,1.5S9.1,15,10,15c0.8,0,1.5-0.7,1.5-1.5c0,0,0,0,0,0C11.5,12.7,10.8,12,10,12L10,12z M3.8,12
	c-0.8,0-1.5,0.7-1.5,1.5S3,15,3.8,15c0.8,0,1.5-0.7,1.5-1.5c0,0,0,0,0,0C5.3,12.7,4.7,12,3.8,12L3.8,12z M4.4,7.2h5.1v0.4H4.4V7.2z
	 M4.1,5.2h5.9v0.4H4.1V5.2z M3.3,3.2h7.2v0.4H3.3V3.2z"/>
</svg>
